<svg xmlns="http://www.w3.org/2000/svg" viewBox="0 0 444 140" role="img" aria-label="MediaLog"><title>MediaLog</title><g fill="#ffffff" transform="translate(0,100)"><path d="M25.44921875 0.0V-65.478515625H42.1484375L54.892578125 -31.0693359375Q55.8154296875 -28.3447265625 57.2216796875 -23.97216796875Q58.6279296875 -19.599609375 59.7705078125 -15.7763671875Q60.9130859375 -19.599609375 62.29736328125 -23.97216796875Q63.681640625 -28.3447265625 64.6044921875 -31.0693359375L77.12890625 -65.478515625H93.916015625V0.0H82.490234375V-33.3984375Q82.490234375 -36.8701171875 82.6220703125 -41.923828125Q82.75390625 -46.9775390625 82.8857421875 -51.9873046875Q81.1279296875 -46.4501953125 79.5458984375 -41.41845703125Q77.9638671875 -36.38671875 76.9091796875 -33.3984375L64.4287109375 0.0H54.9365234375L42.3681640625 -33.3984375Q41.357421875 -36.2548828125 39.79736328125 -41.02294921875Q38.2373046875 -45.791015625 36.5234375 -51.064453125Q36.6552734375 -46.23046875 36.76513671875 -41.46240234375Q36.875 -36.6943359375 36.875 -33.3984375V0.0Z M124.765625 1.0546875Q117.822265625 1.0546875 112.724609375 -2.0654296875Q107.626953125 -5.185546875 104.88037109375 -10.65673828125Q102.1337890625 -16.1279296875 102.1337890625 -23.1591796875Q102.1337890625 -30.234375 104.96826171875 -35.70556640625Q107.802734375 -41.1767578125 112.8125 -44.31884765625Q117.822265625 -47.4609375 124.326171875 -47.4609375Q131.005859375 -47.4609375 136.015625 -44.384765625Q141.025390625 -41.30859375 143.7939453125 -35.88134765625Q146.5625 -30.4541015625 146.5625 -23.3349609375V-20.302734375H112.98828125Q113.2080078125 -14.6337890625 116.328125 -11.162109375Q119.4482421875 -7.6904296875 125.029296875 -7.6904296875Q129.2041015625 -7.6904296875 131.9287109375 -9.51416015625Q134.6533203125 -11.337890625 135.6201171875 -14.326171875H145.9912109375Q145.1123046875 -9.7998046875 142.14599609375 -6.328125Q139.1796875 -2.8564453125 134.697265625 -0.90087890625Q130.21484375 1.0546875 124.765625 1.0546875ZM113.076171875 -27.94921875H135.927734375Q135.400390625 -32.9150390625 132.34619140625 -35.79345703125Q129.2919921875 -38.671875 124.501953125 -38.671875Q119.66796875 -38.671875 116.65771484375 -35.79345703125Q113.6474609375 -32.9150390625 113.076171875 -27.94921875Z M172.0068359375 0.9228515625Q165.9423828125 0.9228515625 161.416015625 -2.109375Q156.8896484375 -5.1416015625 154.40673828125 -10.56884765625Q151.923828125 -15.99609375 151.923828125 -23.2470703125Q151.923828125 -30.3662109375 154.4287109375 -35.79345703125Q156.93359375 -41.220703125 161.4599609375 -44.27490234375Q165.986328125 -47.3291015625 171.9189453125 -47.3291015625Q176.4453125 -47.3291015625 180.048828125 -45.4833984375Q183.65234375 -43.6376953125 185.8935546875 -39.814453125H185.9814453125V-65.478515625H197.0556640625V0.0H186.1572265625V-7.0751953125H186.0693359375Q183.8720703125 -3.0322265625 180.20263671875 -1.0546875Q176.533203125 0.9228515625 172.0068359375 0.9228515625ZM174.599609375 -8.349609375Q180.048828125 -8.349609375 183.32275390625 -12.41455078125Q186.5966796875 -16.4794921875 186.5966796875 -23.2470703125Q186.5966796875 -30.0146484375 183.32275390625 -34.07958984375Q180.048828125 -38.14453125 174.599609375 -38.14453125Q169.4580078125 -38.14453125 166.2939453125 -34.27734375Q163.1298828125 -30.41015625 163.1298828125 -23.2470703125Q163.1298828125 -16.0400390625 166.2939453125 -12.19482421875Q169.4580078125 -8.349609375 174.599609375 -8.349609375Z M206.8994140625 0.0V-46.40625H217.9736328125V0.0ZM212.4365234375 -53.3056640625Q209.580078125 -53.3056640625 207.6904296875 -55.12939453125Q205.80078125 -56.953125 205.80078125 -59.6337890625Q205.80078125 -62.314453125 207.6904296875 -64.1162109375Q209.580078125 -65.91796875 212.4365234375 -65.91796875Q215.2490234375 -65.91796875 217.138671875 -64.1162109375Q219.0283203125 -62.314453125 219.0283203125 -59.6337890625Q219.0283203125 -56.953125 217.138671875 -55.12939453125Q215.2490234375 -53.3056640625 212.4365234375 -53.3056640625Z M241.9677734375 0.7470703125Q235.0244140625 0.7470703125 230.47607421875 -2.74658203125Q225.927734375 -6.240234375 225.927734375 -13.18359375Q225.927734375 -18.45703125 228.49853515625 -21.33544921875Q231.0693359375 -24.2138671875 235.22216796875 -25.5322265625Q239.375 -26.8505859375 244.1650390625 -27.333984375Q250.625 -28.0810546875 253.173828125 -28.65234375Q255.72265625 -29.2236328125 255.72265625 -31.5966796875V-31.9482421875Q255.72265625 -34.9365234375 253.45947265625 -36.826171875Q251.1962890625 -38.7158203125 247.2412109375 -38.7158203125Q243.1982421875 -38.7158203125 240.67138671875 -36.826171875Q238.14453125 -34.9365234375 237.9248046875 -31.9921875H227.24609375Q227.6416015625 -38.8916015625 233.0029296875 -43.1103515625Q238.3642578125 -47.3291015625 247.4609375 -47.3291015625Q256.513671875 -47.3291015625 261.611328125 -43.1103515625Q266.708984375 -38.8916015625 266.708984375 -31.640625V0.0H255.810546875V-6.5478515625H255.634765625Q253.96484375 -3.4716796875 250.80078125 -1.3623046875Q247.63671875 0.7470703125 241.9677734375 0.7470703125ZM244.6923828125 -7.470703125Q250.1416015625 -7.470703125 252.9541015625 -10.30517578125Q255.7666015625 -13.1396484375 255.7666015625 -17.1826171875V-22.1923828125Q254.755859375 -21.533203125 251.85546875 -20.98388671875Q248.955078125 -20.4345703125 245.52734375 -19.9072265625Q241.9677734375 -19.3798828125 239.35302734375 -17.90771484375Q236.73828125 -16.435546875 236.73828125 -13.271484375Q236.73828125 -10.546875 238.8916015625 -9.0087890625Q241.044921875 -7.470703125 244.6923828125 -7.470703125Z M282.0908203125 0.0V-65.478515625H290.0009765625V-7.03125H321.5537109375V0.0Z M398.1064453125 18.984375Q390.2841796875 18.984375 384.87890625 15.380859375Q379.4736328125 11.77734375 378.5947265625 4.921875H386.2412109375Q387.251953125 8.6572265625 390.43798828125 10.52490234375Q393.6240234375 12.392578125 398.1064453125 12.392578125Q404.1708984375 12.392578125 407.642578125 9.16259765625Q411.1142578125 5.9326171875 411.1142578125 0.0V-7.03125H411.0703125Q408.521484375 -2.98828125 404.76416015625 -1.0546875Q401.0068359375 0.87890625 396.4365234375 0.87890625Q390.416015625 0.87890625 385.86767578125 -2.17529296875Q381.3193359375 -5.2294921875 378.814453125 -10.65673828125Q376.3095703125 -16.083984375 376.3095703125 -23.203125Q376.3095703125 -30.3662109375 378.814453125 -35.79345703125Q381.3193359375 -41.220703125 385.86767578125 -44.2529296875Q390.416015625 -47.28515625 396.4365234375 -47.28515625Q400.962890625 -47.28515625 404.85205078125 -45.37353515625Q408.7412109375 -43.4619140625 411.158203125 -39.1552734375H411.2021484375V-46.40625H418.4970703125V0.0Q418.4970703125 6.85546875 415.66259765625 11.0302734375Q412.828125 15.205078125 408.169921875 17.0947265625Q403.51171875 18.984375 398.1064453125 18.984375ZM397.5791015625 -5.8447265625Q404.0390625 -5.8447265625 407.84033203125 -10.5908203125Q411.6416015625 -15.3369140625 411.6416015625 -23.203125Q411.6416015625 -31.0693359375 407.84033203125 -35.83740234375Q404.0390625 -40.60546875 397.5791015625 -40.60546875Q391.55859375 -40.60546875 387.71337890625 -36.1669921875Q383.8681640625 -31.728515625 383.8681640625 -23.203125Q383.8681640625 -14.677734375 387.71337890625 -10.26123046875Q391.55859375 -5.8447265625 397.5791015625 -5.8447265625Z"/></g><circle cx="348.4" cy="75.4" r="22.1" fill="none" stroke="#ffffff" stroke-width="5"/><path d="M 341.6 65.1 L 361.2 75.4 L 341.6 85.8 Z" fill="#ffffff"/></svg>